<svg xmlns="http://www.w3.org/2000/svg" width="70.13mm" height="99.932" viewBox="0 0 7729 2914" shape-rendering="geometricPrecision" text-rendering="geometricPrecision" image-rendering="optimizeQuality" fill-rule="evenodd" clip-rule="evenodd"><defs><style>.fil2{fill:#43342b}.fil1{fill:#5cb462}.fil0{fill:#fac100}</style></defs><g id="Слой_x0020_1"><path class="fil0" d="M1971 2c25 8 53 7 78 10 150 21 268 89 336 227 89 181 74 407-87 562-41 40-86 72-139 93-13 6-15 9-7 22 95 138 188 276 283 413 4 7 10 14 13 22 13 32-4 58-39 58h-250c-41 1-73-14-95-47l-69-102c-58-88-117-176-176-263-13-19-20-41-20-63-1-74-1-149-1-223 0-34 18-51 53-52 39-1 78 2 116-10 65-21 116-58 133-128 25-96-37-190-138-212-20-4-41-7-62-7h-257c-17 0-20 4-20 20v1036c-2 32-18 51-48 51-79 1-158 1-237 0-26 0-41-14-45-41-2-10-2-21-2-31V67c-1-31 8-55 41-64h638V1z"/><path class="fil1" d="M337 503v185c0 13 4 17 17 17 63-1 126 0 188 0 33 0 65-2 96-12 71-21 121-63 138-136s4-140-52-194c-45-42-101-56-161-57-71-2-141 0-213-1-12 0-14 4-14 14v185l1-1zM602 3c15 8 33 6 50 7 117 15 225 51 313 133 65 61 106 137 125 224 23 104 21 208-13 309-47 142-149 231-289 279-64 22-130 32-198 35-78 3-156 1-235 1-13 0-18 3-18 17 1 107 0 214 0 321v18c-1 45-18 62-63 62H65c-45 0-63-18-63-63V65C2 34 14 13 43 2h559l1 2z"/><path class="fil2" d="M7728 293c-26 36-60 67-90 100-100 109-202 218-302 327-9 9-9 15-2 26 121 198 241 397 361 595 3 7 8 13 10 20 9 25-6 46-32 46-69 0-140-1-209 0-35 0-62-13-80-42-20-30-37-62-56-93-65-109-130-217-194-326-2-4-6-9-9-14-35 36-69 73-104 108-6 6-4 12-4 20v288c0 8 0 15-1 22-2 22-15 36-39 36-65 1-129 1-194 0-24 0-36-13-39-36-1-8-1-15-1-24V318c0-9 0-18 1-25 2-20 14-33 35-33 67-2 133-2 201 0 21 1 33 14 35 35 1 8 1 17 1 24v375c8-1 10-8 14-11 110-121 220-242 331-364 54-61 54-61 136-61h197c14 0 28 1 35 15v21l-1-2zM5438 913V300c3-28 15-41 43-41 61-1 122-1 183 0 30 0 42 14 44 44v1058c-1 33-15 47-50 47-52 0-102-1-154 0-34 1-56-13-74-41-37-61-76-122-114-183-86-139-172-278-257-417-2-4-6-8-11-17v592c0 8 0 17-1 24-3 26-18 40-45 40h-185c-29 0-42-13-44-42-1-7-1-13-1-21V306c1-37 12-50 50-51 55-1 111 0 166 0 31 0 51 17 66 41 58 94 117 187 175 282 65 105 130 209 195 314 3 4 6 9 11 19h2zM2436 2282h179c37 0 50 12 51 48 0 79 2 158 0 237-4 118-64 205-161 267-84 54-177 79-278 79-118 1-228-25-323-97-84-63-126-149-127-253-1-134 1-270 0-404-1-147 64-255 192-319 199-99 396-87 577 43 82 58 123 142 119 245-1 25-8 34-33 35-61 1-121 1-182 1-19 0-32-10-35-29-11-68-57-102-120-119-50-13-99-15-148 3-67 26-105 77-106 148-3 122-2 245 0 367 1 74 56 132 133 145 41 7 82 6 122-7 62-19 95-62 105-125 7-41 6-41-36-41h-106c-37 0-50-12-51-48v-129c0-35 13-48 48-48h179-1zm-2176 63v299c0 7-3 15 10 14 62-2 125 3 186-3 87-9 144-71 145-159 1-101 1-202 0-303-1-89-58-150-147-160-60-7-120-1-180-3-14 0-17 4-17 17v296l1 1zM1 2850V1840c4-29 15-39 44-39 134 0 269-3 402 1 121 4 231 45 320 132 62 61 95 136 95 222 1 129 3 258-1 387-4 119-66 207-166 269-80 50-169 74-263 75-126 1-251 0-377 0H45c-29-1-40-11-44-39l1 1zM4210 972c-43-128-86-253-129-378h-3c-43 126-86 251-129 379h260l1-1zm284 435h-90c-32 0-46-9-57-40-17-45-33-89-48-136-4-11-9-15-22-15h-396c-12 0-18 3-22 15-14 44-30 87-46 130-13 35-26 44-64 44h-175c-43 0-52-13-37-54 61-164 121-328 183-493 67-181 134-361 202-542 2-7 6-14 9-21 12-25 32-40 61-40h176c31 0 52 15 63 42 18 42 33 84 48 126 114 309 227 617 342 926 1 3 3 8 4 11 10 30-1 45-33 45h-96v1zm507 1070c-41-120-82-239-123-363-42 125-83 244-123 363h247zm270 412h-86c-32 0-45-9-56-40-15-42-31-85-45-127-3-9-7-13-18-13h-377c-11 0-17 3-20 13-13 41-29 82-43 122-12 35-25 43-63 43h-166c-36 0-46-14-34-48 46-125 93-249 139-375 75-202 150-403 224-605 6-14 11-29 21-41 11-12 25-19 43-19h173c29 0 46 17 56 41 15 36 29 74 42 111 108 292 215 585 324 877 14 37 12 61-40 57-25-1-51 0-75 0l1 2zM3074 682c7-3 8-10 11-15 64-121 128-241 191-363 15-31 37-46 73-46 62 1 122 0 183 0 41 0 53 22 34 57-90 169-181 337-272 506-25 47-51 95-76 141-6 10-8 21-8 32v349c0 8 0 17-1 24-2 24-15 39-39 39-66 1-131 1-197 0-23 0-35-13-39-35-1-9-1-19-1-28V995c0-13-2-25-10-37-119-213-238-425-357-638-2-4-4-8-7-12-14-29-1-51 31-51 68 0 136 1 204 0 34 0 56 15 72 44 22 42 45 84 68 126 44 80 88 161 131 241 2 4 6 9 8 13l1 1zm3008 153V520c0-15-4-19-19-19-29 1-58 1-87 0-36-1-51-14-52-52-1-45 0-90 0-136 0-44 13-57 57-57h420c23 0 45 0 68 1 28 1 42 14 42 42 1 53 1 106 0 160-1 29-17 41-47 42-31 1-62 1-93 0-12 0-14 3-14 15v636c0 13 4 15 17 15 31-1 62 0 93 0 36 0 51 13 51 48 1 50 1 98 0 148 0 30-15 44-45 44h-506c-28 0-43-12-44-40-2-53-2-106 0-160 1-28 17-41 45-41 34-1 67-1 101 0 12 0 14-3 14-14V833h-1zM3831 2448v-395c0-14-3-18-18-18-78 1-156 0-235 0-36 0-50-12-51-48-1-45-1-90 0-136 0-36 13-48 51-48h763c37 0 50 12 50 48v137c0 34-13 47-48 47h-235c-14 0-18 4-18 18v771c0 57-8 65-65 65h-148c-35 0-47-13-47-50v-392h1zm-2648-102v-299c0-12-2-17-15-17-30 1-60 1-89 0-29 0-43-14-43-43v-144c0-29 14-42 43-42h469c29 0 43 14 43 44v142c0 30-14 43-45 44h-89c-10 0-13 2-13 13v605c0 11 4 13 14 13h95c30 0 43 12 44 41 1 48 1 97 0 145-1 29-14 40-43 40h-476c-30 0-43-14-43-43v-141c0-29 14-42 43-42 32 0 63-1 95 0 12 0 14-3 14-15v-302h-3zm1800 0v-299c0-13-3-18-17-17-29 1-58 1-87 0-30 0-44-14-44-44v-142c0-29 14-43 44-43h468c30 0 43 14 44 44v141c0 30-14 44-44 44h-90c-10 0-12 3-12 12v605c0 12 4 13 14 13h93c30 0 43 11 44 40 1 50 1 98 0 148-1 28-14 39-42 39h-478c-29 0-42-14-43-42v-141c0-29 14-43 44-43s60-1 89 0c17 1 19-6 19-20-1-99 0-197 0-296l-2 1zm2552 0v-482c0-8 0-14 1-22 3-29 14-40 43-40h173c28 0 41 12 43 41 1 8 0 14 0 22v774c0 15 4 20 20 20 147-1 294 0 441 0h19c33 2 44 14 44 47v139c0 32-13 45-45 45h-694c-29 0-42-12-44-41-1-8-1-14-1-22v-481l1-1z"/></g></svg>